Genre:Action/Drama/Family/Sport 
Language:English
IMDb:http://www.imdb.com/title/tt1155076/ 
Source:ASIANATIC.Thanks
Encoder: Tony2
..........................................
General
Complete name : The.Karate.Kid.PRE-DVDRiP.R6.MP4.FEEL-FREE
Format : MPEG-4
Format profile : Base Media
Codec ID : isom
File size : 845 MiB
Overall bit rate : 937 Kbps
...........................................
Video
ID : 1
Format : AVC
Format/Info : Advanced Video Codec
Format profile : Main@L1.3
Format settings, CABAC : Yes
Format settings, ReFrames : 1 frame
Codec ID : avc1
Codec ID/Info : Advanced Video Coding
Bit rate mode : Variable
Bit rate : 781 Kbps
Width : 720 pixels
Height : 304 pixels
Display aspect ratio : 2.35:1
Frame rate mode : Constant
Frame rate : 29.970 fps
Resolution : 24 bits
Colorimetry : 4:2:0
Scan type : Progressive
Bits/(Pixel*Frame) : 0.119
Stream size : 704 MiB (83%)
.............................................
Audio
ID : 2
Format : AAC
Format/Info : Advanced Audio Codec
Format version : Version 4
Format profile : LC
Format settings, SBR : No
Codec ID : 40
Bit rate mode : Variable
Bit rate : 152 Kbps
Channel(s) : 2 channels
Channel positions : L R
Sampling rate : 44.1 KHz
Resolution : 16 bits
Stream size : 137 MiB (16%)
.............................................
Plot:
Work causes a single mother to move to China with her young son; in his new home, the boy embraces kung fu, taught to him by a master
...................................................
Screens 
http://postimg.com/image/18000/17213.jpg 
http://postimg.com/image/18000/17214.jpg
.........................................................